<svg xmlns="http://www.w3.org/2000/svg" xmlns:xlink="http://www.w3.org/1999/xlink" width="500" zoomAndPan="magnify" viewBox="0 0 375 374.999991" height="500" preserveAspectRatio="xMidYMid meet" version="1.0"><defs><clipPath id="407f941436"><path d="M 0 0.117188 L 374.882812 0 L 375 374.882812 L 0.117188 375 Z M 0 0.117188 " clip-rule="nonzero"/></clipPath><clipPath id="37b1d94757"><path d="M 187.441406 0.0585938 C 83.921875 0.09375 0.0273438 84.039062 0.0585938 187.558594 C 0.09375 291.078125 84.039062 374.972656 187.558594 374.941406 C 291.078125 374.90625 374.972656 290.960938 374.941406 187.441406 C 374.90625 83.921875 290.960938 0.0273438 187.441406 0.0585938 Z M 187.441406 0.0585938 " clip-rule="nonzero"/></clipPath><clipPath id="0b5ecbe293"><path d="M 0 0 L 375 0 L 375 375 L 0 375 Z M 0 0 " clip-rule="nonzero"/></clipPath><clipPath id="1824c7d460"><path d="M 0 0.117188 L 374.882812 0 L 375 374.882812 L 0.117188 375 Z M 0 0.117188 " clip-rule="nonzero"/></clipPath><clipPath id="81a38f74ad"><path d="M 187.441406 0.0585938 C 83.921875 0.09375 0.0273438 84.039062 0.0585938 187.558594 C 0.09375 291.078125 84.039062 374.972656 187.558594 374.941406 C 291.078125 374.90625 374.972656 290.960938 374.941406 187.441406 C 374.90625 83.921875 290.960938 0.0273438 187.441406 0.0585938 Z M 187.441406 0.0585938 " clip-rule="nonzero"/></clipPath><clipPath id="7d4cee4e45"><rect x="0" width="375" y="0" height="375"/></clipPath><clipPath id="1736a9a437"><path d="M 26.902344 26.902344 L 347.902344 26.902344 L 347.902344 347.902344 L 26.902344 347.902344 Z M 26.902344 26.902344 " clip-rule="nonzero"/></clipPath></defs><g clip-path="url(#407f941436)"><g clip-path="url(#37b1d94757)"><g transform="matrix(1, 0, 0, 1, 0, 0)"><g clip-path="url(#7d4cee4e45)"><g clip-path="url(#0b5ecbe293)"><g clip-path="url(#1824c7d460)"><g clip-path="url(#81a38f74ad)"><path fill="#c8bcab" d="M 0 0.117188 L 374.882812 0 L 375 374.882812 L 0.117188 375 Z M 0 0.117188 " fill-opacity="1" fill-rule="nonzero"/></g></g></g></g></g></g></g><path fill="#c8bcab" d="M 187.496094 168.140625 L 114.089844 114.089844 L 168.140625 187.496094 L 114.089844 260.902344 L 187.496094 206.851562 L 260.902344 260.902344 L 206.851562 187.496094 L 260.902344 114.089844 L 187.496094 168.140625 " fill-opacity="1" fill-rule="nonzero"/><path fill="#000000" d="M 187.496094 169.03125 L 117.457031 117.457031 L 169.03125 187.496094 L 117.457031 257.535156 L 187.496094 205.960938 L 257.535156 257.535156 L 205.960938 187.496094 L 257.535156 117.457031 L 187.496094 169.03125 " fill-opacity="1" fill-rule="nonzero"/><path fill="#000000" d="M 171.246094 187.496094 L 125.59375 249.492188 L 187.589844 187.496094 L 171.246094 187.496094 " fill-opacity="1" fill-rule="nonzero"/><path fill="#c8bcab" d="M 187.589844 203.839844 L 125.59375 249.492188 L 187.589844 187.496094 L 187.589844 203.839844 " fill-opacity="1" fill-rule="nonzero"/><path fill="#c8bcab" d="M 171.246094 187.496094 L 187.589844 187.496094 L 125.59375 125.5 L 171.246094 187.496094 " fill-opacity="1" fill-rule="nonzero"/><path fill="#000000" d="M 187.589844 171.148438 L 187.589844 187.496094 L 125.59375 125.5 L 187.589844 171.148438 " fill-opacity="1" fill-rule="nonzero"/><path fill="#000000" d="M 203.9375 187.496094 L 249.585938 125.5 L 187.589844 187.496094 L 203.9375 187.496094 " fill-opacity="1" fill-rule="nonzero"/><path fill="#c8bcab" d="M 187.589844 171.148438 L 249.585938 125.5 L 187.589844 187.496094 L 187.589844 171.148438 " fill-opacity="1" fill-rule="nonzero"/><path fill="#c8bcab" d="M 203.9375 187.496094 L 187.589844 187.496094 L 249.585938 249.492188 L 203.9375 187.496094 " fill-opacity="1" fill-rule="nonzero"/><path fill="#000000" d="M 187.589844 203.839844 L 187.589844 187.496094 L 249.585938 249.492188 L 187.589844 203.839844 " fill-opacity="1" fill-rule="nonzero"/><path fill="#000000" d="M 193.46875 51.855469 C 209.691406 52.554688 225.429688 56.085938 240.34375 62.394531 C 256.507812 69.234375 271.03125 79.023438 283.5 91.492188 C 295.96875 103.960938 305.757812 118.480469 312.59375 134.648438 C 318.902344 149.5625 322.4375 165.300781 323.132812 181.519531 L 325.882812 181.9375 C 325.230469 165.203125 321.613281 148.964844 315.109375 133.585938 C 308.132812 117.09375 298.148438 102.28125 285.429688 89.5625 C 272.710938 76.84375 257.898438 66.855469 241.40625 59.882812 C 226.027344 53.378906 209.785156 49.761719 193.050781 49.109375 L 193.46875 51.855469 " fill-opacity="1" fill-rule="nonzero"/><path fill="#000000" d="M 51.855469 181.519531 C 52.554688 165.300781 56.085938 149.5625 62.394531 134.648438 C 69.234375 118.480469 79.023438 103.960938 91.492188 91.492188 C 103.960938 79.023438 118.480469 69.234375 134.648438 62.394531 C 149.5625 56.085938 165.300781 52.554688 181.519531 51.855469 L 181.9375 49.109375 C 165.203125 49.761719 148.964844 53.378906 133.585938 59.882812 C 117.09375 66.855469 102.28125 76.84375 89.5625 89.5625 C 76.84375 102.28125 66.855469 117.09375 59.882812 133.585938 C 53.378906 148.964844 49.761719 165.203125 49.109375 181.9375 L 51.855469 181.519531 " fill-opacity="1" fill-rule="nonzero"/><path fill="#000000" d="M 323.132812 193.46875 C 322.4375 209.6875 318.902344 225.429688 312.59375 240.34375 C 305.757812 256.507812 295.96875 271.03125 283.5 283.5 C 271.03125 295.96875 256.507812 305.757812 240.34375 312.59375 C 225.429688 318.902344 209.6875 322.4375 193.46875 323.132812 L 193.050781 325.882812 C 209.785156 325.230469 226.027344 321.613281 241.40625 315.109375 C 257.898438 308.132812 272.710938 298.148438 285.429688 285.429688 C 298.148438 272.710938 308.132812 257.898438 315.109375 241.40625 C 321.613281 226.027344 325.230469 209.785156 325.882812 193.050781 L 323.132812 193.46875 " fill-opacity="1" fill-rule="nonzero"/><path fill="#000000" d="M 181.519531 323.132812 C 165.300781 322.4375 149.5625 318.902344 134.648438 312.59375 C 118.480469 305.757812 103.960938 295.96875 91.492188 283.5 C 79.023438 271.03125 69.234375 256.507812 62.394531 240.34375 C 56.085938 225.429688 52.554688 209.691406 51.855469 193.46875 L 49.109375 193.050781 C 49.761719 209.785156 53.378906 226.027344 59.882812 241.40625 C 66.855469 257.898438 76.84375 272.710938 89.5625 285.429688 C 102.28125 298.148438 117.09375 308.132812 133.585938 315.109375 C 148.964844 321.613281 165.203125 325.230469 181.9375 325.882812 L 181.519531 323.132812 " fill-opacity="1" fill-rule="nonzero"/><g clip-path="url(#1736a9a437)"><path fill="#000000" d="M 208.664062 166.324219 L 187.496094 26.902344 L 166.324219 166.324219 L 26.902344 187.496094 L 166.324219 208.664062 L 187.496094 348.089844 L 208.664062 208.664062 L 348.089844 187.496094 L 208.664062 166.324219 " fill-opacity="1" fill-rule="nonzero"/></g><path fill="#000000" d="M 168.125 168.125 L 39.820312 187.609375 L 187.609375 187.609375 Z M 168.125 168.125 " fill-opacity="1" fill-rule="nonzero"/><path fill="#c8bcab" d="M 168.125 207.089844 L 39.820312 187.609375 L 187.609375 187.609375 Z M 168.125 207.089844 " fill-opacity="1" fill-rule="nonzero"/><path fill="#c8bcab" d="M 168.125 168.125 L 187.609375 187.609375 L 187.609375 39.820312 Z M 168.125 168.125 " fill-opacity="1" fill-rule="nonzero"/><path fill="#000000" d="M 207.089844 168.125 L 187.609375 187.609375 L 187.609375 39.820312 Z M 207.089844 168.125 " fill-opacity="1" fill-rule="nonzero"/><path fill="#000000" d="M 207.089844 207.089844 L 335.394531 187.609375 L 187.609375 187.609375 Z M 207.089844 207.089844 " fill-opacity="1" fill-rule="nonzero"/><path fill="#c8bcab" d="M 207.089844 168.125 L 335.394531 187.609375 L 187.609375 187.609375 Z M 207.089844 168.125 " fill-opacity="1" fill-rule="nonzero"/><path fill="#c8bcab" d="M 207.089844 207.089844 L 187.609375 187.609375 L 187.609375 335.394531 Z M 207.089844 207.089844 " fill-opacity="1" fill-rule="nonzero"/><path fill="#000000" d="M 168.125 207.089844 L 187.609375 187.609375 L 187.609375 335.394531 Z M 168.125 207.089844 " fill-opacity="1" fill-rule="nonzero"/></svg>