<svg xmlns="http://www.w3.org/2000/svg" xmlns:xlink="http://www.w3.org/1999/xlink" width="200" zoomAndPan="magnify" viewBox="0 0 150 37.5" height="50" preserveAspectRatio="xMidYMid meet" version="1.2"><defs><clipPath id="3f381d9ede"><path d="M 6.167969 6.222656 L 30.59375 6.222656 L 30.59375 30.644531 L 6.167969 30.644531 Z M 6.167969 6.222656 "/></clipPath></defs><g id="74d5969b62"><path style=" stroke:none;fill-rule:nonzero;fill:#c8bcab;fill-opacity:1;" d="M 18.378906 16.960938 L 12.796875 12.851562 L 16.90625 18.433594 L 12.796875 24.015625 L 18.378906 19.90625 L 23.960938 24.015625 L 19.851562 18.433594 L 23.960938 12.851562 L 18.378906 16.960938 "/><path style=" stroke:none;fill-rule:nonzero;fill:#000000;fill-opacity:1;" d="M 18.378906 17.027344 L 13.054688 13.105469 L 16.976562 18.433594 L 13.054688 23.757812 L 18.378906 19.835938 L 23.707031 23.757812 L 19.785156 18.433594 L 23.707031 13.105469 L 18.378906 17.027344 "/><path style=" stroke:none;fill-rule:nonzero;fill:#000000;fill-opacity:1;" d="M 17.144531 18.433594 L 13.671875 23.148438 L 18.386719 18.433594 L 17.144531 18.433594 "/><path style=" stroke:none;fill-rule:nonzero;fill:#c8bcab;fill-opacity:1;" d="M 18.386719 19.675781 L 13.671875 23.148438 L 18.386719 18.433594 L 18.386719 19.675781 "/><path style=" stroke:none;fill-rule:nonzero;fill:#c8bcab;fill-opacity:1;" d="M 17.144531 18.433594 L 18.386719 18.433594 L 13.671875 13.71875 L 17.144531 18.433594 "/><path style=" stroke:none;fill-rule:nonzero;fill:#000000;fill-opacity:1;" d="M 18.386719 17.191406 L 18.386719 18.433594 L 13.671875 13.71875 L 18.386719 17.191406 "/><path style=" stroke:none;fill-rule:nonzero;fill:#000000;fill-opacity:1;" d="M 19.628906 18.433594 L 23.101562 13.71875 L 18.386719 18.433594 L 19.628906 18.433594 "/><path style=" stroke:none;fill-rule:nonzero;fill:#c8bcab;fill-opacity:1;" d="M 18.386719 17.191406 L 23.101562 13.71875 L 18.386719 18.433594 L 18.386719 17.191406 "/><path style=" stroke:none;fill-rule:nonzero;fill:#c8bcab;fill-opacity:1;" d="M 19.628906 18.433594 L 18.386719 18.433594 L 23.101562 23.148438 L 19.628906 18.433594 "/><path style=" stroke:none;fill-rule:nonzero;fill:#000000;fill-opacity:1;" d="M 18.386719 19.675781 L 18.386719 18.433594 L 23.101562 23.148438 L 18.386719 19.675781 "/><path style=" stroke:none;fill-rule:nonzero;fill:#000000;fill-opacity:1;" d="M 18.835938 8.117188 C 20.066406 8.171875 21.265625 8.441406 22.398438 8.921875 C 23.628906 9.441406 24.730469 10.183594 25.679688 11.132812 C 26.628906 12.082031 27.375 13.183594 27.894531 14.414062 C 28.371094 15.546875 28.640625 16.746094 28.695312 17.980469 L 28.902344 18.011719 C 28.855469 16.738281 28.578125 15.503906 28.085938 14.332031 C 27.554688 13.078125 26.792969 11.953125 25.828125 10.984375 C 24.859375 10.019531 23.734375 9.257812 22.480469 8.730469 C 21.308594 8.234375 20.074219 7.960938 18.800781 7.910156 L 18.835938 8.117188 "/><path style=" stroke:none;fill-rule:nonzero;fill:#000000;fill-opacity:1;" d="M 8.066406 17.980469 C 8.117188 16.746094 8.386719 15.546875 8.867188 14.414062 C 9.386719 13.183594 10.132812 12.082031 11.078125 11.132812 C 12.027344 10.183594 13.132812 9.441406 14.359375 8.921875 C 15.496094 8.441406 16.691406 8.171875 17.925781 8.117188 L 17.957031 7.910156 C 16.683594 7.960938 15.449219 8.234375 14.28125 8.730469 C 13.027344 9.257812 11.898438 10.019531 10.933594 10.984375 C 9.964844 11.953125 9.207031 13.078125 8.675781 14.332031 C 8.179688 15.503906 7.90625 16.738281 7.855469 18.011719 L 8.066406 17.980469 "/><path style=" stroke:none;fill-rule:nonzero;fill:#000000;fill-opacity:1;" d="M 28.695312 18.886719 C 28.640625 20.121094 28.371094 21.316406 27.894531 22.453125 C 27.375 23.679688 26.628906 24.785156 25.679688 25.734375 C 24.730469 26.683594 23.628906 27.425781 22.398438 27.945312 C 21.265625 28.425781 20.066406 28.695312 18.835938 28.746094 L 18.800781 28.957031 C 20.074219 28.90625 21.308594 28.632812 22.480469 28.136719 C 23.734375 27.605469 24.859375 26.847656 25.828125 25.878906 C 26.792969 24.914062 27.554688 23.785156 28.085938 22.53125 C 28.578125 21.363281 28.855469 20.128906 28.902344 18.855469 L 28.695312 18.886719 "/><path style=" stroke:none;fill-rule:nonzero;fill:#000000;fill-opacity:1;" d="M 17.925781 28.746094 C 16.691406 28.695312 15.496094 28.425781 14.359375 27.945312 C 13.132812 27.425781 12.027344 26.683594 11.078125 25.734375 C 10.132812 24.785156 9.386719 23.679688 8.867188 22.453125 C 8.386719 21.316406 8.117188 20.121094 8.066406 18.886719 L 7.855469 18.855469 C 7.90625 20.128906 8.179688 21.363281 8.675781 22.53125 C 9.207031 23.785156 9.964844 24.914062 10.933594 25.878906 C 11.898438 26.847656 13.027344 27.605469 14.28125 28.136719 C 15.449219 28.632812 16.683594 28.90625 17.957031 28.957031 L 17.925781 28.746094 "/><g clip-rule="nonzero" clip-path="url(#3f381d9ede)"><path style=" stroke:none;fill-rule:nonzero;fill:#000000;fill-opacity:1;" d="M 19.988281 16.824219 L 18.378906 6.222656 L 16.769531 16.824219 L 6.167969 18.433594 L 16.769531 20.042969 L 18.378906 30.644531 L 19.988281 20.042969 L 30.59375 18.433594 L 19.988281 16.824219 "/></g><path style=" stroke:none;fill-rule:nonzero;fill:#000000;fill-opacity:1;" d="M 16.90625 16.960938 L 7.148438 18.441406 L 18.386719 18.441406 Z M 16.90625 16.960938 "/><path style=" stroke:none;fill-rule:nonzero;fill:#c8bcab;fill-opacity:1;" d="M 16.90625 19.921875 L 7.148438 18.441406 L 18.386719 18.441406 Z M 16.90625 19.921875 "/><path style=" stroke:none;fill-rule:nonzero;fill:#c8bcab;fill-opacity:1;" d="M 16.90625 16.960938 L 18.386719 18.441406 L 18.386719 7.203125 Z M 16.90625 16.960938 "/><path style=" stroke:none;fill-rule:nonzero;fill:#000000;fill-opacity:1;" d="M 19.871094 16.960938 L 18.386719 18.441406 L 18.386719 7.203125 Z M 19.871094 16.960938 "/><path style=" stroke:none;fill-rule:nonzero;fill:#000000;fill-opacity:1;" d="M 19.871094 19.921875 L 29.625 18.441406 L 18.386719 18.441406 Z M 19.871094 19.921875 "/><path style=" stroke:none;fill-rule:nonzero;fill:#c8bcab;fill-opacity:1;" d="M 19.871094 16.960938 L 29.625 18.441406 L 18.386719 18.441406 Z M 19.871094 16.960938 "/><path style=" stroke:none;fill-rule:nonzero;fill:#c8bcab;fill-opacity:1;" d="M 19.871094 19.921875 L 18.386719 18.441406 L 18.386719 29.679688 Z M 19.871094 19.921875 "/><path style=" stroke:none;fill-rule:nonzero;fill:#000000;fill-opacity:1;" d="M 16.90625 19.921875 L 18.386719 18.441406 L 18.386719 29.679688 Z M 16.90625 19.921875 "/><g style="fill:#000000;fill-opacity:1;"><g transform="translate(34.334813, 20.432421)"><path style="stroke:none" d="M 4.203125 0.125 C 3.109375 0.125 2.179688 -0.171875 1.421875 -0.765625 C 0.671875 -1.359375 0.296875 -2.210938 0.296875 -3.328125 C 0.296875 -3.984375 0.421875 -4.566406 0.671875 -5.078125 C 0.921875 -5.585938 1.25 -5.988281 1.65625 -6.28125 C 2.46875 -6.882812 3.382812 -7.1875 4.40625 -7.1875 C 4.988281 -7.1875 5.601562 -7.078125 6.25 -6.859375 L 6.140625 -6.140625 C 5.804688 -6.273438 5.546875 -6.378906 5.359375 -6.453125 C 4.828125 -6.648438 4.289062 -6.75 3.75 -6.75 C 3 -6.570312 2.421875 -6.195312 2.015625 -5.625 C 1.617188 -5.0625 1.421875 -4.351562 1.421875 -3.5 C 1.421875 -2.457031 1.691406 -1.65625 2.234375 -1.09375 C 2.785156 -0.53125 3.507812 -0.25 4.40625 -0.25 C 5.300781 -0.25 5.972656 -0.441406 6.421875 -0.828125 L 6.421875 -0.234375 C 5.804688 0.00390625 5.066406 0.125 4.203125 0.125 Z M 4.203125 0.125 "/></g></g><g style="fill:#000000;fill-opacity:1;"><g transform="translate(43.568897, 20.432421)"><path style="stroke:none" d="M 2 -3.375 L 2 0 L 0.953125 0 L 0.953125 -7.046875 L 3.265625 -7.046875 C 3.984375 -7.046875 4.570312 -6.882812 5.03125 -6.5625 C 5.488281 -6.25 5.71875 -5.832031 5.71875 -5.3125 C 5.71875 -4.789062 5.53125 -4.378906 5.15625 -4.078125 C 4.789062 -3.773438 4.296875 -3.566406 3.671875 -3.453125 L 6.53125 0 L 5.296875 0.15625 L 2.828125 -3.375 Z M 2 -3.6875 L 2.6875 -3.6875 C 3.96875 -3.6875 4.609375 -4.191406 4.609375 -5.203125 C 4.609375 -5.367188 4.5625 -5.5625 4.46875 -5.78125 C 4.3125 -6.226562 3.96875 -6.519531 3.4375 -6.65625 C 2.945312 -6.65625 2.46875 -6.597656 2 -6.484375 Z M 2 -3.6875 "/></g></g><g style="fill:#000000;fill-opacity:1;"><g transform="translate(52.866953, 20.432421)"><path style="stroke:none" d="M 0.109375 0 L 3.265625 -7.21875 L 3.4375 -7.21875 L 6.59375 0 L 5.4375 0 L 4.640625 -1.921875 L 1.46875 -1.921875 L 0.6875 0 Z M 1.625 -2.328125 L 4.46875 -2.328125 L 3.0625 -5.78125 Z M 1.625 -2.328125 "/></g></g><g style="fill:#000000;fill-opacity:1;"><g transform="translate(62.069048, 20.432421)"><path style="stroke:none" d="M 1.71875 -5.828125 C 1.71875 -5.515625 1.84375 -5.222656 2.09375 -4.953125 C 2.34375 -4.691406 2.640625 -4.457031 2.984375 -4.25 C 3.335938 -4.050781 3.6875 -3.847656 4.03125 -3.640625 C 4.382812 -3.429688 4.679688 -3.171875 4.921875 -2.859375 C 5.171875 -2.554688 5.296875 -2.222656 5.296875 -1.859375 C 5.296875 -1.273438 5.078125 -0.796875 4.640625 -0.421875 C 4.210938 -0.0546875 3.632812 0.125 2.90625 0.125 C 2.175781 0.125 1.453125 -0.0078125 0.734375 -0.28125 L 0.734375 -0.78125 C 1.460938 -0.425781 2.078125 -0.25 2.578125 -0.25 C 3.085938 -0.25 3.484375 -0.367188 3.765625 -0.609375 C 4.054688 -0.859375 4.203125 -1.207031 4.203125 -1.65625 C 4.203125 -1.945312 4.082031 -2.210938 3.84375 -2.453125 C 3.613281 -2.703125 3.332031 -2.914062 3 -3.09375 C 2.664062 -3.28125 2.328125 -3.46875 1.984375 -3.65625 C 1.648438 -3.851562 1.363281 -4.097656 1.125 -4.390625 C 0.894531 -4.691406 0.78125 -5.050781 0.78125 -5.46875 C 0.78125 -5.882812 0.96875 -6.273438 1.34375 -6.640625 C 1.71875 -7.003906 2.273438 -7.1875 3.015625 -7.1875 C 3.492188 -7.1875 4.101562 -7.078125 4.84375 -6.859375 L 4.734375 -6.125 C 3.773438 -6.539062 2.957031 -6.75 2.28125 -6.75 C 1.90625 -6.570312 1.71875 -6.265625 1.71875 -5.828125 Z M 1.71875 -5.828125 "/></g></g><g style="fill:#000000;fill-opacity:1;"><g transform="translate(70.492818, 20.432421)"><path style="stroke:none" d="M 2 -3.5 L 2 0 L 0.953125 0 L 0.953125 -7.046875 L 2 -7.046875 L 2 -3.90625 L 5.21875 -3.90625 L 5.21875 -7.046875 L 6.25 -7.046875 L 6.25 0 L 5.21875 0 L 5.21875 -3.5 Z M 2 -3.5 "/></g></g><g style="fill:#000000;fill-opacity:1;"><g transform="translate(80.206693, 20.432421)"><path style="stroke:none" d="M 4.203125 0.125 C 3.109375 0.125 2.179688 -0.171875 1.421875 -0.765625 C 0.671875 -1.359375 0.296875 -2.210938 0.296875 -3.328125 C 0.296875 -3.984375 0.421875 -4.566406 0.671875 -5.078125 C 0.921875 -5.585938 1.25 -5.988281 1.65625 -6.28125 C 2.46875 -6.882812 3.382812 -7.1875 4.40625 -7.1875 C 4.988281 -7.1875 5.601562 -7.078125 6.25 -6.859375 L 6.140625 -6.140625 C 5.804688 -6.273438 5.546875 -6.378906 5.359375 -6.453125 C 4.828125 -6.648438 4.289062 -6.75 3.75 -6.75 C 3 -6.570312 2.421875 -6.195312 2.015625 -5.625 C 1.617188 -5.0625 1.421875 -4.351562 1.421875 -3.5 C 1.421875 -2.457031 1.691406 -1.65625 2.234375 -1.09375 C 2.785156 -0.53125 3.507812 -0.25 4.40625 -0.25 C 5.300781 -0.25 5.972656 -0.441406 6.421875 -0.828125 L 6.421875 -0.234375 C 5.804688 0.00390625 5.066406 0.125 4.203125 0.125 Z M 4.203125 0.125 "/></g></g><g style="fill:#000000;fill-opacity:1;"><g transform="translate(89.440777, 20.432421)"><path style="stroke:none" d="M 4.171875 -7.1875 C 5.085938 -7.1875 5.847656 -6.878906 6.453125 -6.265625 C 7.054688 -5.660156 7.359375 -4.816406 7.359375 -3.734375 C 7.359375 -3.046875 7.238281 -2.4375 7 -1.90625 C 6.757812 -1.382812 6.441406 -0.984375 6.046875 -0.703125 C 5.285156 -0.148438 4.445312 0.125 3.53125 0.125 C 2.613281 0.125 1.851562 -0.179688 1.25 -0.796875 C 0.65625 -1.410156 0.359375 -2.253906 0.359375 -3.328125 C 0.359375 -3.890625 0.4375 -4.394531 0.59375 -4.84375 C 0.757812 -5.300781 0.972656 -5.671875 1.234375 -5.953125 C 1.492188 -6.242188 1.789062 -6.484375 2.125 -6.671875 C 2.75 -7.015625 3.429688 -7.1875 4.171875 -7.1875 Z M 2.03125 -1.21875 C 2.207031 -0.90625 2.453125 -0.660156 2.765625 -0.484375 C 3.078125 -0.304688 3.4375 -0.21875 3.84375 -0.21875 C 4.257812 -0.21875 4.625 -0.320312 4.9375 -0.53125 C 5.257812 -0.738281 5.507812 -1.007812 5.6875 -1.34375 C 6.050781 -2.007812 6.234375 -2.726562 6.234375 -3.5 C 6.234375 -4.4375 6.046875 -5.195312 5.671875 -5.78125 C 5.253906 -6.425781 4.5625 -6.75 3.59375 -6.75 C 2.90625 -6.507812 2.378906 -6.09375 2.015625 -5.5 C 1.660156 -4.90625 1.484375 -4.238281 1.484375 -3.5 C 1.484375 -2.582031 1.664062 -1.820312 2.03125 -1.21875 Z M 2.03125 -1.21875 "/></g></g><g style="fill:#000000;fill-opacity:1;"><g transform="translate(99.666431, 20.432421)"><path style="stroke:none" d="M 4.71875 -1.671875 L 7.078125 -7.046875 L 8.15625 -7.046875 L 8.5625 0 L 7.46875 0 L 7.1875 -6.0625 L 7.140625 -6.0625 L 4.453125 0 L 4.3125 0 L 1.671875 -5.8125 L 1.625 -5.8125 L 1.34375 0 L 0.875 0 L 1.265625 -7.046875 L 2.265625 -7.046875 Z M 4.71875 -1.671875 "/></g></g><g style="fill:#000000;fill-opacity:1;"><g transform="translate(111.640669, 20.432421)"><path style="stroke:none" d="M 5.703125 -5.21875 C 5.703125 -4.539062 5.453125 -4.023438 4.953125 -3.671875 C 4.453125 -3.316406 3.769531 -3.140625 2.90625 -3.140625 L 2 -3.140625 L 2 0 L 0.953125 0 L 0.953125 -7.046875 L 3.25 -7.046875 C 3.96875 -7.046875 4.554688 -6.882812 5.015625 -6.5625 C 5.472656 -6.238281 5.703125 -5.789062 5.703125 -5.21875 Z M 2 -3.453125 L 2.9375 -3.453125 C 3.269531 -3.453125 3.554688 -3.515625 3.796875 -3.640625 C 4.035156 -3.773438 4.207031 -3.941406 4.3125 -4.140625 C 4.507812 -4.492188 4.609375 -4.835938 4.609375 -5.171875 C 4.609375 -5.328125 4.5625 -5.519531 4.46875 -5.75 C 4.300781 -6.21875 3.953125 -6.523438 3.421875 -6.671875 C 2.910156 -6.671875 2.4375 -6.609375 2 -6.484375 Z M 2 -3.453125 "/></g></g><g style="fill:#000000;fill-opacity:1;"><g transform="translate(119.957817, 20.432421)"><path style="stroke:none" d="M 0.109375 0 L 3.265625 -7.21875 L 3.4375 -7.21875 L 6.59375 0 L 5.4375 0 L 4.640625 -1.921875 L 1.46875 -1.921875 L 0.6875 0 Z M 1.625 -2.328125 L 4.46875 -2.328125 L 3.0625 -5.78125 Z M 1.625 -2.328125 "/></g></g><g style="fill:#000000;fill-opacity:1;"><g transform="translate(129.159912, 20.432421)"><path style="stroke:none" d="M 1.71875 -5.828125 C 1.71875 -5.515625 1.84375 -5.222656 2.09375 -4.953125 C 2.34375 -4.691406 2.640625 -4.457031 2.984375 -4.25 C 3.335938 -4.050781 3.6875 -3.847656 4.03125 -3.640625 C 4.382812 -3.429688 4.679688 -3.171875 4.921875 -2.859375 C 5.171875 -2.554688 5.296875 -2.222656 5.296875 -1.859375 C 5.296875 -1.273438 5.078125 -0.796875 4.640625 -0.421875 C 4.210938 -0.0546875 3.632812 0.125 2.90625 0.125 C 2.175781 0.125 1.453125 -0.0078125 0.734375 -0.28125 L 0.734375 -0.78125 C 1.460938 -0.425781 2.078125 -0.25 2.578125 -0.25 C 3.085938 -0.25 3.484375 -0.367188 3.765625 -0.609375 C 4.054688 -0.859375 4.203125 -1.207031 4.203125 -1.65625 C 4.203125 -1.945312 4.082031 -2.210938 3.84375 -2.453125 C 3.613281 -2.703125 3.332031 -2.914062 3 -3.09375 C 2.664062 -3.28125 2.328125 -3.46875 1.984375 -3.65625 C 1.648438 -3.851562 1.363281 -4.097656 1.125 -4.390625 C 0.894531 -4.691406 0.78125 -5.050781 0.78125 -5.46875 C 0.78125 -5.882812 0.96875 -6.273438 1.34375 -6.640625 C 1.71875 -7.003906 2.273438 -7.1875 3.015625 -7.1875 C 3.492188 -7.1875 4.101562 -7.078125 4.84375 -6.859375 L 4.734375 -6.125 C 3.773438 -6.539062 2.957031 -6.75 2.28125 -6.75 C 1.90625 -6.570312 1.71875 -6.265625 1.71875 -5.828125 Z M 1.71875 -5.828125 "/></g></g><g style="fill:#000000;fill-opacity:1;"><g transform="translate(137.583676, 20.432421)"><path style="stroke:none" d="M 1.71875 -5.828125 C 1.71875 -5.515625 1.84375 -5.222656 2.09375 -4.953125 C 2.34375 -4.691406 2.640625 -4.457031 2.984375 -4.25 C 3.335938 -4.050781 3.6875 -3.847656 4.03125 -3.640625 C 4.382812 -3.429688 4.679688 -3.171875 4.921875 -2.859375 C 5.171875 -2.554688 5.296875 -2.222656 5.296875 -1.859375 C 5.296875 -1.273438 5.078125 -0.796875 4.640625 -0.421875 C 4.210938 -0.0546875 3.632812 0.125 2.90625 0.125 C 2.175781 0.125 1.453125 -0.0078125 0.734375 -0.28125 L 0.734375 -0.78125 C 1.460938 -0.425781 2.078125 -0.25 2.578125 -0.25 C 3.085938 -0.25 3.484375 -0.367188 3.765625 -0.609375 C 4.054688 -0.859375 4.203125 -1.207031 4.203125 -1.65625 C 4.203125 -1.945312 4.082031 -2.210938 3.84375 -2.453125 C 3.613281 -2.703125 3.332031 -2.914062 3 -3.09375 C 2.664062 -3.28125 2.328125 -3.46875 1.984375 -3.65625 C 1.648438 -3.851562 1.363281 -4.097656 1.125 -4.390625 C 0.894531 -4.691406 0.78125 -5.050781 0.78125 -5.46875 C 0.78125 -5.882812 0.96875 -6.273438 1.34375 -6.640625 C 1.71875 -7.003906 2.273438 -7.1875 3.015625 -7.1875 C 3.492188 -7.1875 4.101562 -7.078125 4.84375 -6.859375 L 4.734375 -6.125 C 3.773438 -6.539062 2.957031 -6.75 2.28125 -6.75 C 1.90625 -6.570312 1.71875 -6.265625 1.71875 -5.828125 Z M 1.71875 -5.828125 "/></g></g><g style="fill:#17212e;fill-opacity:1;"><g transform="translate(34.7355, 25.318996)"><path style="stroke:none" d="M 2 -1.859375 C 2 -1.671875 1.9375 -1.503906 1.8125 -1.359375 C 1.695312 -1.210938 1.492188 -1.132812 1.203125 -1.125 L 2 0 L 1.84375 0 L 1.046875 -1.125 L 0.46875 -1.125 L 0.46875 0 L 0.34375 0 L 0.34375 -2.59375 L 1.140625 -2.59375 C 1.359375 -2.59375 1.53125 -2.550781 1.65625 -2.46875 C 1.78125 -2.394531 1.867188 -2.300781 1.921875 -2.1875 C 1.972656 -2.082031 2 -1.972656 2 -1.859375 Z M 0.46875 -1.25 L 1.140625 -1.25 C 1.347656 -1.25 1.523438 -1.296875 1.671875 -1.390625 C 1.816406 -1.484375 1.890625 -1.640625 1.890625 -1.859375 C 1.890625 -2.078125 1.816406 -2.234375 1.671875 -2.328125 C 1.523438 -2.421875 1.347656 -2.46875 1.140625 -2.46875 L 0.46875 -2.46875 Z M 0.46875 -1.25 "/></g></g><g style="fill:#17212e;fill-opacity:1;"><g transform="translate(37.881788, 25.318996)"><path style="stroke:none" d="M 0.46875 -2.46875 L 0.46875 -1.390625 L 1.6875 -1.390625 L 1.6875 -1.265625 L 0.46875 -1.265625 L 0.46875 -0.125 L 1.828125 -0.125 L 1.828125 0 L 0.34375 0 L 0.34375 -2.59375 L 1.828125 -2.59375 L 1.828125 -2.46875 Z M 0.46875 -2.46875 "/></g></g><g style="fill:#17212e;fill-opacity:1;"><g transform="translate(40.909349, 25.318996)"><path style="stroke:none" d="M 1.40625 0.015625 C 1.164062 0.015625 0.957031 -0.0351562 0.78125 -0.140625 C 0.613281 -0.253906 0.484375 -0.410156 0.390625 -0.609375 C 0.296875 -0.804688 0.25 -1.039062 0.25 -1.3125 C 0.25 -1.582031 0.296875 -1.816406 0.390625 -2.015625 C 0.484375 -2.222656 0.613281 -2.378906 0.78125 -2.484375 C 0.957031 -2.585938 1.164062 -2.640625 1.40625 -2.640625 C 1.6875 -2.640625 1.921875 -2.5625 2.109375 -2.40625 C 2.296875 -2.257812 2.425781 -2.050781 2.5 -1.78125 L 2.359375 -1.78125 C 2.296875 -2.007812 2.175781 -2.1875 2 -2.3125 C 1.832031 -2.445312 1.632812 -2.515625 1.40625 -2.515625 C 1.082031 -2.515625 0.832031 -2.40625 0.65625 -2.1875 C 0.476562 -1.976562 0.390625 -1.6875 0.390625 -1.3125 C 0.390625 -0.945312 0.476562 -0.65625 0.65625 -0.4375 C 0.832031 -0.21875 1.082031 -0.109375 1.40625 -0.109375 C 1.625 -0.109375 1.8125 -0.164062 1.96875 -0.28125 C 2.132812 -0.394531 2.253906 -0.554688 2.328125 -0.765625 L 2.46875 -0.765625 C 2.382812 -0.515625 2.25 -0.320312 2.0625 -0.1875 C 1.882812 -0.0507812 1.664062 0.015625 1.40625 0.015625 Z M 1.40625 0.015625 "/></g></g><g style="fill:#17212e;fill-opacity:1;"><g transform="translate(44.504579, 25.318996)"><path style="stroke:none" d="M 0.46875 -2.46875 L 0.46875 -1.390625 L 1.6875 -1.390625 L 1.6875 -1.265625 L 0.46875 -1.265625 L 0.46875 -0.125 L 1.828125 -0.125 L 1.828125 0 L 0.34375 0 L 0.34375 -2.59375 L 1.828125 -2.59375 L 1.828125 -2.46875 Z M 0.46875 -2.46875 "/></g></g><g style="fill:#17212e;fill-opacity:1;"><g transform="translate(47.532139, 25.318996)"><path style="stroke:none" d="M 1.125 0.03125 C 0.925781 0.03125 0.757812 -0.0078125 0.625 -0.09375 C 0.488281 -0.175781 0.382812 -0.285156 0.3125 -0.421875 C 0.25 -0.554688 0.21875 -0.691406 0.21875 -0.828125 L 0.21875 -0.84375 L 0.359375 -0.84375 L 0.359375 -0.828125 C 0.359375 -0.722656 0.382812 -0.613281 0.4375 -0.5 C 0.488281 -0.382812 0.570312 -0.289062 0.6875 -0.21875 C 0.800781 -0.144531 0.945312 -0.109375 1.125 -0.109375 C 1.332031 -0.109375 1.503906 -0.160156 1.640625 -0.265625 C 1.773438 -0.367188 1.84375 -0.515625 1.84375 -0.703125 C 1.84375 -0.847656 1.796875 -0.960938 1.703125 -1.046875 C 1.609375 -1.140625 1.488281 -1.203125 1.34375 -1.234375 L 0.90625 -1.3125 C 0.757812 -1.332031 0.617188 -1.382812 0.484375 -1.46875 C 0.359375 -1.5625 0.296875 -1.71875 0.296875 -1.9375 C 0.296875 -2.082031 0.328125 -2.207031 0.390625 -2.3125 C 0.453125 -2.414062 0.546875 -2.492188 0.671875 -2.546875 C 0.796875 -2.609375 0.9375 -2.640625 1.09375 -2.640625 C 1.269531 -2.640625 1.421875 -2.601562 1.546875 -2.53125 C 1.679688 -2.457031 1.78125 -2.359375 1.84375 -2.234375 C 1.914062 -2.117188 1.953125 -1.992188 1.953125 -1.859375 L 1.953125 -1.84375 L 1.8125 -1.84375 L 1.8125 -1.859375 C 1.8125 -1.953125 1.785156 -2.046875 1.734375 -2.140625 C 1.691406 -2.242188 1.617188 -2.332031 1.515625 -2.40625 C 1.410156 -2.476562 1.269531 -2.515625 1.09375 -2.515625 C 0.957031 -2.515625 0.835938 -2.488281 0.734375 -2.4375 C 0.628906 -2.382812 0.550781 -2.3125 0.5 -2.21875 C 0.445312 -2.132812 0.421875 -2.039062 0.421875 -1.9375 C 0.421875 -1.8125 0.457031 -1.703125 0.53125 -1.609375 C 0.613281 -1.523438 0.734375 -1.46875 0.890625 -1.4375 L 1.265625 -1.375 C 1.453125 -1.34375 1.617188 -1.28125 1.765625 -1.1875 C 1.910156 -1.09375 1.984375 -0.9375 1.984375 -0.71875 C 1.984375 -0.570312 1.945312 -0.441406 1.875 -0.328125 C 1.8125 -0.222656 1.710938 -0.132812 1.578125 -0.0625 C 1.441406 0 1.289062 0.03125 1.125 0.03125 Z M 1.125 0.03125 "/></g></g><g style="fill:#17212e;fill-opacity:1;"><g transform="translate(50.648743, 25.318996)"><path style="stroke:none" d="M 1.125 0.03125 C 0.925781 0.03125 0.757812 -0.0078125 0.625 -0.09375 C 0.488281 -0.175781 0.382812 -0.285156 0.3125 -0.421875 C 0.25 -0.554688 0.21875 -0.691406 0.21875 -0.828125 L 0.21875 -0.84375 L 0.359375 -0.84375 L 0.359375 -0.828125 C 0.359375 -0.722656 0.382812 -0.613281 0.4375 -0.5 C 0.488281 -0.382812 0.570312 -0.289062 0.6875 -0.21875 C 0.800781 -0.144531 0.945312 -0.109375 1.125 -0.109375 C 1.332031 -0.109375 1.503906 -0.160156 1.640625 -0.265625 C 1.773438 -0.367188 1.84375 -0.515625 1.84375 -0.703125 C 1.84375 -0.847656 1.796875 -0.960938 1.703125 -1.046875 C 1.609375 -1.140625 1.488281 -1.203125 1.34375 -1.234375 L 0.90625 -1.3125 C 0.757812 -1.332031 0.617188 -1.382812 0.484375 -1.46875 C 0.359375 -1.5625 0.296875 -1.71875 0.296875 -1.9375 C 0.296875 -2.082031 0.328125 -2.207031 0.390625 -2.3125 C 0.453125 -2.414062 0.546875 -2.492188 0.671875 -2.546875 C 0.796875 -2.609375 0.9375 -2.640625 1.09375 -2.640625 C 1.269531 -2.640625 1.421875 -2.601562 1.546875 -2.53125 C 1.679688 -2.457031 1.78125 -2.359375 1.84375 -2.234375 C 1.914062 -2.117188 1.953125 -1.992188 1.953125 -1.859375 L 1.953125 -1.84375 L 1.8125 -1.84375 L 1.8125 -1.859375 C 1.8125 -1.953125 1.785156 -2.046875 1.734375 -2.140625 C 1.691406 -2.242188 1.617188 -2.332031 1.515625 -2.40625 C 1.410156 -2.476562 1.269531 -2.515625 1.09375 -2.515625 C 0.957031 -2.515625 0.835938 -2.488281 0.734375 -2.4375 C 0.628906 -2.382812 0.550781 -2.3125 0.5 -2.21875 C 0.445312 -2.132812 0.421875 -2.039062 0.421875 -1.9375 C 0.421875 -1.8125 0.457031 -1.703125 0.53125 -1.609375 C 0.613281 -1.523438 0.734375 -1.46875 0.890625 -1.4375 L 1.265625 -1.375 C 1.453125 -1.34375 1.617188 -1.28125 1.765625 -1.1875 C 1.910156 -1.09375 1.984375 -0.9375 1.984375 -0.71875 C 1.984375 -0.570312 1.945312 -0.441406 1.875 -0.328125 C 1.8125 -0.222656 1.710938 -0.132812 1.578125 -0.0625 C 1.441406 0 1.289062 0.03125 1.125 0.03125 Z M 1.125 0.03125 "/></g></g><g style="fill:#17212e;fill-opacity:1;"><g transform="translate(53.765347, 25.318996)"><path style="stroke:none" d="M 0.34375 -2.59375 L 0.46875 -2.59375 L 0.46875 0 L 0.34375 0 Z M 0.34375 -2.59375 "/></g></g><g style="fill:#17212e;fill-opacity:1;"><g transform="translate(55.486897, 25.318996)"><path style="stroke:none" d="M 1.375 0.015625 C 1.144531 0.015625 0.941406 -0.0351562 0.765625 -0.140625 C 0.585938 -0.253906 0.453125 -0.410156 0.359375 -0.609375 C 0.273438 -0.804688 0.234375 -1.039062 0.234375 -1.3125 C 0.234375 -1.582031 0.273438 -1.816406 0.359375 -2.015625 C 0.453125 -2.222656 0.585938 -2.378906 0.765625 -2.484375 C 0.941406 -2.585938 1.144531 -2.640625 1.375 -2.640625 C 1.613281 -2.640625 1.816406 -2.585938 1.984375 -2.484375 C 2.160156 -2.378906 2.296875 -2.222656 2.390625 -2.015625 C 2.484375 -1.816406 2.53125 -1.582031 2.53125 -1.3125 C 2.53125 -1.039062 2.484375 -0.804688 2.390625 -0.609375 C 2.296875 -0.410156 2.160156 -0.253906 1.984375 -0.140625 C 1.816406 -0.0351562 1.613281 0.015625 1.375 0.015625 Z M 1.375 -0.109375 C 1.582031 -0.109375 1.765625 -0.15625 1.921875 -0.25 C 2.078125 -0.351562 2.195312 -0.492188 2.28125 -0.671875 C 2.363281 -0.859375 2.40625 -1.070312 2.40625 -1.3125 C 2.40625 -1.5625 2.363281 -1.773438 2.28125 -1.953125 C 2.195312 -2.128906 2.078125 -2.265625 1.921875 -2.359375 C 1.765625 -2.460938 1.582031 -2.515625 1.375 -2.515625 C 1.175781 -2.515625 1 -2.460938 0.84375 -2.359375 C 0.6875 -2.265625 0.566406 -2.128906 0.484375 -1.953125 C 0.398438 -1.773438 0.359375 -1.5625 0.359375 -1.3125 C 0.359375 -1.070312 0.398438 -0.859375 0.484375 -0.671875 C 0.566406 -0.492188 0.6875 -0.351562 0.84375 -0.25 C 1 -0.15625 1.175781 -0.109375 1.375 -0.109375 Z M 1.375 -0.109375 "/></g></g><g style="fill:#17212e;fill-opacity:1;"><g transform="translate(59.160042, 25.318996)"><path style="stroke:none" d="M 0.34375 -2.59375 L 0.46875 -2.59375 L 2.1875 -0.234375 L 2.203125 -0.234375 L 2.203125 -2.59375 L 2.328125 -2.59375 L 2.328125 0 L 2.203125 0 L 0.484375 -2.359375 L 0.46875 -2.359375 L 0.46875 0 L 0.34375 0 Z M 0.34375 -2.59375 "/></g></g><g style="fill:#17212e;fill-opacity:1;"><g transform="translate(62.744138, 25.318996)"><path style="stroke:none" d=""/></g></g><g style="fill:#17212e;fill-opacity:1;"><g transform="translate(64.506501, 25.318996)"><path style="stroke:none" d="M 0.34375 -2.59375 L 0.46875 -2.59375 L 0.46875 0 L 0.34375 0 Z M 0.34375 -2.59375 "/></g></g><g style="fill:#17212e;fill-opacity:1;"><g transform="translate(66.228051, 25.318996)"><path style="stroke:none" d="M 0.34375 -2.59375 L 0.46875 -2.59375 L 2.1875 -0.234375 L 2.203125 -0.234375 L 2.203125 -2.59375 L 2.328125 -2.59375 L 2.328125 0 L 2.203125 0 L 0.484375 -2.359375 L 0.46875 -2.359375 L 0.46875 0 L 0.34375 0 Z M 0.34375 -2.59375 "/></g></g><g style="fill:#17212e;fill-opacity:1;"><g transform="translate(69.812147, 25.318996)"><path style="stroke:none" d="M 0.34375 -2.59375 L 1.234375 -2.59375 C 1.460938 -2.59375 1.664062 -2.535156 1.84375 -2.421875 C 2.019531 -2.316406 2.15625 -2.164062 2.25 -1.96875 C 2.34375 -1.78125 2.390625 -1.554688 2.390625 -1.296875 C 2.390625 -1.035156 2.34375 -0.804688 2.25 -0.609375 C 2.15625 -0.421875 2.019531 -0.269531 1.84375 -0.15625 C 1.675781 -0.0507812 1.472656 0 1.234375 0 L 0.34375 0 Z M 1.234375 -0.125 C 1.441406 -0.125 1.617188 -0.171875 1.765625 -0.265625 C 1.921875 -0.367188 2.039062 -0.507812 2.125 -0.6875 C 2.21875 -0.863281 2.265625 -1.066406 2.265625 -1.296875 C 2.265625 -1.523438 2.21875 -1.726562 2.125 -1.90625 C 2.039062 -2.082031 1.921875 -2.21875 1.765625 -2.3125 C 1.617188 -2.414062 1.441406 -2.46875 1.234375 -2.46875 L 0.46875 -2.46875 L 0.46875 -0.125 Z M 1.234375 -0.125 "/></g></g><g style="fill:#17212e;fill-opacity:1;"><g transform="translate(73.29607, 25.318996)"><path style="stroke:none" d="M 0.34375 -2.59375 L 0.46875 -2.59375 L 0.46875 0 L 0.34375 0 Z M 0.34375 -2.59375 "/></g></g><g style="fill:#17212e;fill-opacity:1;"><g transform="translate(75.01762, 25.318996)"><path style="stroke:none" d="M 1.40625 0.015625 C 1.164062 0.015625 0.957031 -0.0351562 0.78125 -0.140625 C 0.613281 -0.253906 0.484375 -0.410156 0.390625 -0.609375 C 0.296875 -0.804688 0.25 -1.039062 0.25 -1.3125 C 0.25 -1.582031 0.296875 -1.816406 0.390625 -2.015625 C 0.484375 -2.222656 0.613281 -2.378906 0.78125 -2.484375 C 0.957031 -2.585938 1.164062 -2.640625 1.40625 -2.640625 C 1.6875 -2.640625 1.921875 -2.5625 2.109375 -2.40625 C 2.296875 -2.257812 2.425781 -2.050781 2.5 -1.78125 L 2.359375 -1.78125 C 2.296875 -2.007812 2.175781 -2.1875 2 -2.3125 C 1.832031 -2.445312 1.632812 -2.515625 1.40625 -2.515625 C 1.082031 -2.515625 0.832031 -2.40625 0.65625 -2.1875 C 0.476562 -1.976562 0.390625 -1.6875 0.390625 -1.3125 C 0.390625 -0.945312 0.476562 -0.65625 0.65625 -0.4375 C 0.832031 -0.21875 1.082031 -0.109375 1.40625 -0.109375 C 1.625 -0.109375 1.8125 -0.164062 1.96875 -0.28125 C 2.132812 -0.394531 2.253906 -0.554688 2.328125 -0.765625 L 2.46875 -0.765625 C 2.382812 -0.515625 2.25 -0.320312 2.0625 -0.1875 C 1.882812 -0.0507812 1.664062 0.015625 1.40625 0.015625 Z M 1.40625 0.015625 "/></g></g><g style="fill:#17212e;fill-opacity:1;"><g transform="translate(78.61285, 25.318996)"><path style="stroke:none" d="M 1.875 -0.875 L 0.65625 -0.875 L 0.3125 0 L 0.1875 0 L 1.203125 -2.59375 L 1.328125 -2.59375 L 2.359375 0 L 2.21875 0 Z M 1.828125 -0.984375 L 1.265625 -2.421875 L 0.703125 -0.984375 Z M 1.828125 -0.984375 "/></g></g><g style="fill:#17212e;fill-opacity:1;"><g transform="translate(82.067088, 25.318996)"><path style="stroke:none" d="M 1.96875 -2.46875 L 1.140625 -2.46875 L 1.140625 0 L 1.015625 0 L 1.015625 -2.46875 L 0.1875 -2.46875 L 0.1875 -2.59375 L 1.96875 -2.59375 Z M 1.96875 -2.46875 "/></g></g><g style="fill:#17212e;fill-opacity:1;"><g transform="translate(85.146592, 25.318996)"><path style="stroke:none" d="M 1.375 0.015625 C 1.144531 0.015625 0.941406 -0.0351562 0.765625 -0.140625 C 0.585938 -0.253906 0.453125 -0.410156 0.359375 -0.609375 C 0.273438 -0.804688 0.234375 -1.039062 0.234375 -1.3125 C 0.234375 -1.582031 0.273438 -1.816406 0.359375 -2.015625 C 0.453125 -2.222656 0.585938 -2.378906 0.765625 -2.484375 C 0.941406 -2.585938 1.144531 -2.640625 1.375 -2.640625 C 1.613281 -2.640625 1.816406 -2.585938 1.984375 -2.484375 C 2.160156 -2.378906 2.296875 -2.222656 2.390625 -2.015625 C 2.484375 -1.816406 2.53125 -1.582031 2.53125 -1.3125 C 2.53125 -1.039062 2.484375 -0.804688 2.390625 -0.609375 C 2.296875 -0.410156 2.160156 -0.253906 1.984375 -0.140625 C 1.816406 -0.0351562 1.613281 0.015625 1.375 0.015625 Z M 1.375 -0.109375 C 1.582031 -0.109375 1.765625 -0.15625 1.921875 -0.25 C 2.078125 -0.351562 2.195312 -0.492188 2.28125 -0.671875 C 2.363281 -0.859375 2.40625 -1.070312 2.40625 -1.3125 C 2.40625 -1.5625 2.363281 -1.773438 2.28125 -1.953125 C 2.195312 -2.128906 2.078125 -2.265625 1.921875 -2.359375 C 1.765625 -2.460938 1.582031 -2.515625 1.375 -2.515625 C 1.175781 -2.515625 1 -2.460938 0.84375 -2.359375 C 0.6875 -2.265625 0.566406 -2.128906 0.484375 -1.953125 C 0.398438 -1.773438 0.359375 -1.5625 0.359375 -1.3125 C 0.359375 -1.070312 0.398438 -0.859375 0.484375 -0.671875 C 0.566406 -0.492188 0.6875 -0.351562 0.84375 -0.25 C 1 -0.15625 1.175781 -0.109375 1.375 -0.109375 Z M 1.375 -0.109375 "/></g></g><g style="fill:#17212e;fill-opacity:1;"><g transform="translate(88.819736, 25.318996)"><path style="stroke:none" d="M 2 -1.859375 C 2 -1.671875 1.9375 -1.503906 1.8125 -1.359375 C 1.695312 -1.210938 1.492188 -1.132812 1.203125 -1.125 L 2 0 L 1.84375 0 L 1.046875 -1.125 L 0.46875 -1.125 L 0.46875 0 L 0.34375 0 L 0.34375 -2.59375 L 1.140625 -2.59375 C 1.359375 -2.59375 1.53125 -2.550781 1.65625 -2.46875 C 1.78125 -2.394531 1.867188 -2.300781 1.921875 -2.1875 C 1.972656 -2.082031 2 -1.972656 2 -1.859375 Z M 0.46875 -1.25 L 1.140625 -1.25 C 1.347656 -1.25 1.523438 -1.296875 1.671875 -1.390625 C 1.816406 -1.484375 1.890625 -1.640625 1.890625 -1.859375 C 1.890625 -2.078125 1.816406 -2.234375 1.671875 -2.328125 C 1.523438 -2.421875 1.347656 -2.46875 1.140625 -2.46875 L 0.46875 -2.46875 Z M 0.46875 -1.25 "/></g></g><g style="fill:#17212e;fill-opacity:1;"><g transform="translate(91.966025, 25.318996)"><path style="stroke:none" d=""/></g></g><g style="fill:#17212e;fill-opacity:1;"><g transform="translate(93.728388, 25.318996)"><path style="stroke:none" d="M 1.875 -0.875 L 0.65625 -0.875 L 0.3125 0 L 0.1875 0 L 1.203125 -2.59375 L 1.328125 -2.59375 L 2.359375 0 L 2.21875 0 Z M 1.828125 -0.984375 L 1.265625 -2.421875 L 0.703125 -0.984375 Z M 1.828125 -0.984375 "/></g></g><g style="fill:#17212e;fill-opacity:1;"><g transform="translate(97.182627, 25.318996)"><path style="stroke:none" d="M 1.359375 0.015625 C 1.097656 0.015625 0.878906 -0.046875 0.703125 -0.171875 C 0.535156 -0.304688 0.414062 -0.472656 0.34375 -0.671875 C 0.269531 -0.878906 0.234375 -1.09375 0.234375 -1.3125 C 0.234375 -1.53125 0.269531 -1.738281 0.34375 -1.9375 C 0.414062 -2.144531 0.535156 -2.3125 0.703125 -2.4375 C 0.878906 -2.570312 1.097656 -2.640625 1.359375 -2.640625 C 1.640625 -2.640625 1.863281 -2.566406 2.03125 -2.421875 C 2.207031 -2.273438 2.332031 -2.09375 2.40625 -1.875 L 2.265625 -1.875 C 2.203125 -2.082031 2.09375 -2.238281 1.9375 -2.34375 C 1.789062 -2.457031 1.597656 -2.515625 1.359375 -2.515625 C 1.148438 -2.515625 0.972656 -2.46875 0.828125 -2.375 C 0.679688 -2.28125 0.566406 -2.140625 0.484375 -1.953125 C 0.398438 -1.773438 0.359375 -1.5625 0.359375 -1.3125 C 0.359375 -1.0625 0.398438 -0.847656 0.484375 -0.671875 C 0.566406 -0.492188 0.679688 -0.351562 0.828125 -0.25 C 0.984375 -0.15625 1.160156 -0.109375 1.359375 -0.109375 C 1.546875 -0.109375 1.707031 -0.144531 1.84375 -0.21875 C 1.976562 -0.300781 2.082031 -0.410156 2.15625 -0.546875 C 2.238281 -0.679688 2.28125 -0.84375 2.28125 -1.03125 L 2.28125 -1.171875 L 1.390625 -1.171875 L 1.390625 -1.28125 L 2.390625 -1.28125 L 2.390625 0 L 2.265625 0 L 2.265625 -0.484375 L 2.234375 -0.484375 C 2.171875 -0.335938 2.0625 -0.21875 1.90625 -0.125 C 1.757812 -0.03125 1.578125 0.015625 1.359375 0.015625 Z M 1.359375 0.015625 "/></g></g><g style="fill:#17212e;fill-opacity:1;"><g transform="translate(100.744464, 25.318996)"><path style="stroke:none" d="M 1.359375 0.015625 C 1.097656 0.015625 0.878906 -0.046875 0.703125 -0.171875 C 0.535156 -0.304688 0.414062 -0.472656 0.34375 -0.671875 C 0.269531 -0.878906 0.234375 -1.09375 0.234375 -1.3125 C 0.234375 -1.53125 0.269531 -1.738281 0.34375 -1.9375 C 0.414062 -2.144531 0.535156 -2.3125 0.703125 -2.4375 C 0.878906 -2.570312 1.097656 -2.640625 1.359375 -2.640625 C 1.640625 -2.640625 1.863281 -2.566406 2.03125 -2.421875 C 2.207031 -2.273438 2.332031 -2.09375 2.40625 -1.875 L 2.265625 -1.875 C 2.203125 -2.082031 2.09375 -2.238281 1.9375 -2.34375 C 1.789062 -2.457031 1.597656 -2.515625 1.359375 -2.515625 C 1.148438 -2.515625 0.972656 -2.46875 0.828125 -2.375 C 0.679688 -2.28125 0.566406 -2.140625 0.484375 -1.953125 C 0.398438 -1.773438 0.359375 -1.5625 0.359375 -1.3125 C 0.359375 -1.0625 0.398438 -0.847656 0.484375 -0.671875 C 0.566406 -0.492188 0.679688 -0.351562 0.828125 -0.25 C 0.984375 -0.15625 1.160156 -0.109375 1.359375 -0.109375 C 1.546875 -0.109375 1.707031 -0.144531 1.84375 -0.21875 C 1.976562 -0.300781 2.082031 -0.410156 2.15625 -0.546875 C 2.238281 -0.679688 2.28125 -0.84375 2.28125 -1.03125 L 2.28125 -1.171875 L 1.390625 -1.171875 L 1.390625 -1.28125 L 2.390625 -1.28125 L 2.390625 0 L 2.265625 0 L 2.265625 -0.484375 L 2.234375 -0.484375 C 2.171875 -0.335938 2.0625 -0.21875 1.90625 -0.125 C 1.757812 -0.03125 1.578125 0.015625 1.359375 0.015625 Z M 1.359375 0.015625 "/></g></g><g style="fill:#17212e;fill-opacity:1;"><g transform="translate(104.306301, 25.318996)"><path style="stroke:none" d="M 2 -1.859375 C 2 -1.671875 1.9375 -1.503906 1.8125 -1.359375 C 1.695312 -1.210938 1.492188 -1.132812 1.203125 -1.125 L 2 0 L 1.84375 0 L 1.046875 -1.125 L 0.46875 -1.125 L 0.46875 0 L 0.34375 0 L 0.34375 -2.59375 L 1.140625 -2.59375 C 1.359375 -2.59375 1.53125 -2.550781 1.65625 -2.46875 C 1.78125 -2.394531 1.867188 -2.300781 1.921875 -2.1875 C 1.972656 -2.082031 2 -1.972656 2 -1.859375 Z M 0.46875 -1.25 L 1.140625 -1.25 C 1.347656 -1.25 1.523438 -1.296875 1.671875 -1.390625 C 1.816406 -1.484375 1.890625 -1.640625 1.890625 -1.859375 C 1.890625 -2.078125 1.816406 -2.234375 1.671875 -2.328125 C 1.523438 -2.421875 1.347656 -2.46875 1.140625 -2.46875 L 0.46875 -2.46875 Z M 0.46875 -1.25 "/></g></g><g style="fill:#17212e;fill-opacity:1;"><g transform="translate(107.45259, 25.318996)"><path style="stroke:none" d="M 0.46875 -2.46875 L 0.46875 -1.390625 L 1.6875 -1.390625 L 1.6875 -1.265625 L 0.46875 -1.265625 L 0.46875 -0.125 L 1.828125 -0.125 L 1.828125 0 L 0.34375 0 L 0.34375 -2.59375 L 1.828125 -2.59375 L 1.828125 -2.46875 Z M 0.46875 -2.46875 "/></g></g><g style="fill:#17212e;fill-opacity:1;"><g transform="translate(110.48015, 25.318996)"><path style="stroke:none" d="M 1.359375 0.015625 C 1.097656 0.015625 0.878906 -0.046875 0.703125 -0.171875 C 0.535156 -0.304688 0.414062 -0.472656 0.34375 -0.671875 C 0.269531 -0.878906 0.234375 -1.09375 0.234375 -1.3125 C 0.234375 -1.53125 0.269531 -1.738281 0.34375 -1.9375 C 0.414062 -2.144531 0.535156 -2.3125 0.703125 -2.4375 C 0.878906 -2.570312 1.097656 -2.640625 1.359375 -2.640625 C 1.640625 -2.640625 1.863281 -2.566406 2.03125 -2.421875 C 2.207031 -2.273438 2.332031 -2.09375 2.40625 -1.875 L 2.265625 -1.875 C 2.203125 -2.082031 2.09375 -2.238281 1.9375 -2.34375 C 1.789062 -2.457031 1.597656 -2.515625 1.359375 -2.515625 C 1.148438 -2.515625 0.972656 -2.46875 0.828125 -2.375 C 0.679688 -2.28125 0.566406 -2.140625 0.484375 -1.953125 C 0.398438 -1.773438 0.359375 -1.5625 0.359375 -1.3125 C 0.359375 -1.0625 0.398438 -0.847656 0.484375 -0.671875 C 0.566406 -0.492188 0.679688 -0.351562 0.828125 -0.25 C 0.984375 -0.15625 1.160156 -0.109375 1.359375 -0.109375 C 1.546875 -0.109375 1.707031 -0.144531 1.84375 -0.21875 C 1.976562 -0.300781 2.082031 -0.410156 2.15625 -0.546875 C 2.238281 -0.679688 2.28125 -0.84375 2.28125 -1.03125 L 2.28125 -1.171875 L 1.390625 -1.171875 L 1.390625 -1.28125 L 2.390625 -1.28125 L 2.390625 0 L 2.265625 0 L 2.265625 -0.484375 L 2.234375 -0.484375 C 2.171875 -0.335938 2.0625 -0.21875 1.90625 -0.125 C 1.757812 -0.03125 1.578125 0.015625 1.359375 0.015625 Z M 1.359375 0.015625 "/></g></g><g style="fill:#17212e;fill-opacity:1;"><g transform="translate(114.041992, 25.318996)"><path style="stroke:none" d="M 1.875 -0.875 L 0.65625 -0.875 L 0.3125 0 L 0.1875 0 L 1.203125 -2.59375 L 1.328125 -2.59375 L 2.359375 0 L 2.21875 0 Z M 1.828125 -0.984375 L 1.265625 -2.421875 L 0.703125 -0.984375 Z M 1.828125 -0.984375 "/></g></g><g style="fill:#17212e;fill-opacity:1;"><g transform="translate(117.496226, 25.318996)"><path style="stroke:none" d="M 1.96875 -2.46875 L 1.140625 -2.46875 L 1.140625 0 L 1.015625 0 L 1.015625 -2.46875 L 0.1875 -2.46875 L 0.1875 -2.59375 L 1.96875 -2.59375 Z M 1.96875 -2.46875 "/></g></g><g style="fill:#17212e;fill-opacity:1;"><g transform="translate(120.575734, 25.318996)"><path style="stroke:none" d="M 1.375 0.015625 C 1.144531 0.015625 0.941406 -0.0351562 0.765625 -0.140625 C 0.585938 -0.253906 0.453125 -0.410156 0.359375 -0.609375 C 0.273438 -0.804688 0.234375 -1.039062 0.234375 -1.3125 C 0.234375 -1.582031 0.273438 -1.816406 0.359375 -2.015625 C 0.453125 -2.222656 0.585938 -2.378906 0.765625 -2.484375 C 0.941406 -2.585938 1.144531 -2.640625 1.375 -2.640625 C 1.613281 -2.640625 1.816406 -2.585938 1.984375 -2.484375 C 2.160156 -2.378906 2.296875 -2.222656 2.390625 -2.015625 C 2.484375 -1.816406 2.53125 -1.582031 2.53125 -1.3125 C 2.53125 -1.039062 2.484375 -0.804688 2.390625 -0.609375 C 2.296875 -0.410156 2.160156 -0.253906 1.984375 -0.140625 C 1.816406 -0.0351562 1.613281 0.015625 1.375 0.015625 Z M 1.375 -0.109375 C 1.582031 -0.109375 1.765625 -0.15625 1.921875 -0.25 C 2.078125 -0.351562 2.195312 -0.492188 2.28125 -0.671875 C 2.363281 -0.859375 2.40625 -1.070312 2.40625 -1.3125 C 2.40625 -1.5625 2.363281 -1.773438 2.28125 -1.953125 C 2.195312 -2.128906 2.078125 -2.265625 1.921875 -2.359375 C 1.765625 -2.460938 1.582031 -2.515625 1.375 -2.515625 C 1.175781 -2.515625 1 -2.460938 0.84375 -2.359375 C 0.6875 -2.265625 0.566406 -2.128906 0.484375 -1.953125 C 0.398438 -1.773438 0.359375 -1.5625 0.359375 -1.3125 C 0.359375 -1.070312 0.398438 -0.859375 0.484375 -0.671875 C 0.566406 -0.492188 0.6875 -0.351562 0.84375 -0.25 C 1 -0.15625 1.175781 -0.109375 1.375 -0.109375 Z M 1.375 -0.109375 "/></g></g><g style="fill:#17212e;fill-opacity:1;"><g transform="translate(124.248874, 25.318996)"><path style="stroke:none" d="M 2 -1.859375 C 2 -1.671875 1.9375 -1.503906 1.8125 -1.359375 C 1.695312 -1.210938 1.492188 -1.132812 1.203125 -1.125 L 2 0 L 1.84375 0 L 1.046875 -1.125 L 0.46875 -1.125 L 0.46875 0 L 0.34375 0 L 0.34375 -2.59375 L 1.140625 -2.59375 C 1.359375 -2.59375 1.53125 -2.550781 1.65625 -2.46875 C 1.78125 -2.394531 1.867188 -2.300781 1.921875 -2.1875 C 1.972656 -2.082031 2 -1.972656 2 -1.859375 Z M 0.46875 -1.25 L 1.140625 -1.25 C 1.347656 -1.25 1.523438 -1.296875 1.671875 -1.390625 C 1.816406 -1.484375 1.890625 -1.640625 1.890625 -1.859375 C 1.890625 -2.078125 1.816406 -2.234375 1.671875 -2.328125 C 1.523438 -2.421875 1.347656 -2.46875 1.140625 -2.46875 L 0.46875 -2.46875 Z M 0.46875 -1.25 "/></g></g></g></svg>